# xmcd
#
# Track frame offsets: 
#        150
#        14493
#        26074
#        44757
#        56525
#        72238
#        89624
#        108240
#        126436
#        162257
#
# Disc length: 3236 seconds
#
# Revision: 0
# Processed by: cddbd v1.5.2PL0 Copyright (c) Steve Scherf et al.
# Submitted via: ExactAudioCopyFreeDBPlugin 1.0
#
DISCID=8d0ca20a
DTITLE=Maciej Maleńczuk - Psychocountry Specjalna Edycja CD2
DYEAR=2012
DGENRE=Folk/Rock
TTITLE0=To nie ja, org. It Ain't Me, Baby
TTITLE1=Rawhide
TTITLE2=California Blue
TTITLE3=Ring of Fire
TTITLE4=Ballad of Ira Hayes
TTITLE5=Highwayman
TTITLE6=Ballada o dzikim zachodzie (Kuba)
TTITLE7=Stand By Your Man (Kuba)
TTITLE8=Naga prawda o Psychocountry
TTITLE9=Występ w studiu (sesja live)
EXTD=
EXTT0=
EXTT1=
EXTT2=
EXTT3=
EXTT4=
EXTT5=
EXTT6=
EXTT7=
EXTT8=
EXTT9=
PLAYORDER=
